<svg version="1.1" viewBox="0 0 640 400" xmlns="http://www.w3.org/2000/svg" xmlns:xlink="http://www.w3.org/1999/xlink" xmlns:svgjs="http://svgjs.dev/svgjs" matcher="0.1969054622208486"><g viewBox="0 0 640 400" matcher="0.1969054622208486"><g matcher="0.1969054622208486"><g matcher="0.1969054622208486"><g matcher="0.1969054622208486"><svg viewBox="0 0 640 400" preserveAspectRatio="xMidYMid meet" height="400" width="640" xmlns="http://www.w3.org/2000/svg" xmlns:xlink="http://www.w3.org/1999/xlink"><rect width="640" height="400" x="0" y="0" opacity="1" fill="#ffffff" data-fill-palette-color="background" id="background"></rect><g id="tight-bounds" transform="matrix(1,0,0,1,122.24000000000001,160.73476677370866)"><svg viewBox="0 0 395.52 78.53046645258266" height="78.53046645258266" width="395.52"><g><svg viewBox="0 0 566.4860310158824 112.47575913872738" height="78.53046645258266" width="395.52"><g transform="matrix(1,0,0,1,170.9660310158825,2.6943123047551083)"><svg viewBox="0 0 395.52 107.08713452921717" height="107.08713452921717" width="395.52"><g id="textblocktransform"><svg viewBox="0 0 395.52 107.08713452921717" height="107.08713452921717" width="395.52" id="textblock"><g><svg viewBox="0 0 395.52 70.37126770929162" height="70.37126770929162" width="395.52"><g transform="matrix(1,0,0,1,0,0)"><svg width="395.52" viewBox="4 -36.75 272.2300109863281 48.349998474121094" height="70.37126770929162" data-palette-color="#ff0000"><g class="wordmark-text-0" data-fill-palette-color="primary" id="text-0"><path d="M8.5 0L4 0 4-26 8.35-26 8.35-21.65Q9.75-23.75 11.9-25.18 14.05-26.6 16.8-26.6L16.8-26.6Q19.9-26.6 21.88-25.1 23.85-23.6 24.65-21.1L24.65-21.1Q26.2-23.4 28.33-25 30.45-26.6 33.6-26.6L33.6-26.6Q37.85-26.6 39.93-23.93 42-21.25 42-16.95L42-16.95 42 0 37.5 0 37.5-16.6Q37.5-19.3 36.25-20.98 35-22.65 32.8-22.65L32.8-22.65Q30.55-22.65 28.63-20.98 26.7-19.3 25.25-17.05L25.25-17.05 25.25 0 20.75 0 20.75-16.6Q20.75-19.3 19.5-20.98 18.25-22.65 16.05-22.65L16.05-22.65Q13.85-22.65 11.9-21.03 9.95-19.4 8.5-17.2L8.5-17.2 8.5 0ZM54.25 0L49.75 0 49.75-26 54.25-26 54.25 0ZM52-30.45L52-30.45Q50.7-30.45 49.77-31.4 48.85-32.35 48.85-33.6L48.85-33.6Q48.85-35.05 49.7-35.9 50.55-36.75 52-36.75L52-36.75Q53.3-36.75 54.22-35.83 55.15-34.9 55.15-33.6L55.15-33.6Q55.15-32.2 54.3-31.33 53.45-30.45 52-30.45ZM71.8 11.6L71.8 11.6Q69.5 11.6 67.32 11.05 65.15 10.5 63.45 9.4L63.45 9.4 65.09 5.5Q66.3 6.45 67.9 7.08 69.5 7.7 71.8 7.7L71.8 7.7Q75.34 7.7 77.37 5.83 79.4 3.95 79.4-0.15L79.4-0.15 79.4-3.35Q78.4-2.15 76.52-1.07 74.65 0 72.05 0L72.05 0Q69.09 0 66.45-1.53 63.8-3.05 62.15-6 60.5-8.95 60.5-13.1L60.5-13.1Q60.5-17 62.12-20.05 63.75-23.1 66.5-24.85 69.25-26.6 72.55-26.6L72.55-26.6Q74.75-26.6 76.55-25.85 78.34-25.1 79.65-24L79.65-24 79.65-26 83.75-26 83.75-0.6Q83.75 3.7 82.25 6.4 80.75 9.1 78.07 10.35 75.4 11.6 71.8 11.6ZM73.05-4L73.05-4Q75.05-4 76.65-4.9 78.25-5.8 79.25-7L79.25-7 79.25-20.6Q78.15-21.4 76.59-22.05 75.05-22.7 73-22.7L73-22.7Q70.95-22.7 69.15-21.6 67.34-20.5 66.22-18.43 65.09-16.35 65.09-13.35L65.09-13.35Q65.09-10.5 66.22-8.4 67.34-6.3 69.15-5.15 70.95-4 73.05-4ZM95.99 0L91.49 0 91.49-26 95.84-26 95.84-20.35Q96.49-22 97.59-23.43 98.69-24.85 100.34-25.73 101.99-26.6 104.19-26.6L104.19-26.6Q104.94-26.6 105.69-26.53 106.44-26.45 106.94-26.3L106.94-26.3 105.59-21.65Q104.64-22.05 103.34-22.05L103.34-22.05Q101.49-22.05 99.82-21 98.14-19.95 97.07-17.75 95.99-15.55 95.99-12.15L95.99-12.15 95.99 0ZM121.39 0.6L121.39 0.6Q118.14 0.6 115.49-1.05 112.84-2.7 111.27-5.73 109.69-8.75 109.69-12.85L109.69-12.85Q109.69-16.75 111.27-19.85 112.84-22.95 115.62-24.78 118.39-26.6 121.99-26.6L121.99-26.6Q124.24-26.6 126.07-25.83 127.89-25.05 129.24-23.9L129.24-23.9 129.24-26 133.34-26 133.34-6.3Q133.34-4.4 134.27-3.83 135.19-3.25 136.29-3.25L136.29-3.25 135.34 0.25Q130.54 0.25 129.54-3.65L129.54-3.65Q128.39-2.05 126.42-0.73 124.44 0.6 121.39 0.6ZM122.39-3.4L122.39-3.4Q124.29-3.4 125.99-4.33 127.69-5.25 128.84-6.65L128.84-6.65 128.84-20.6Q127.49-21.55 125.87-22.13 124.24-22.7 122.44-22.7L122.44-22.7Q120.04-22.7 118.22-21.48 116.39-20.25 115.34-18.07 114.29-15.9 114.29-13L114.29-13Q114.29-10.2 115.34-8.03 116.39-5.85 118.24-4.63 120.09-3.4 122.39-3.4ZM151.39 0.6L151.39 0.6Q147.64 0.6 145.46-1.88 143.29-4.35 143.29-8.95L143.29-8.95 143.29-21.15 138.79-21.15 138.79-25.05 143.39-25.05 144.34-33.25 147.79-33.25 147.79-25.05 154.99-25.05 154.99-21.15 147.79-21.15 147.79-8.6Q147.79-5.7 149.01-4.55 150.24-3.4 151.94-3.4L151.94-3.4Q153.19-3.4 154.31-3.8 155.44-4.2 156.39-4.75L156.39-4.75 157.64-1.15Q156.64-0.55 154.94 0.03 153.24 0.6 151.39 0.6ZM172.54 0.6L172.54 0.6Q166.94 0.6 163.66-2.98 160.39-6.55 160.39-13L160.39-13Q160.39-16.9 161.86-19.98 163.34-23.05 165.99-24.83 168.64-26.6 172.14-26.6L172.14-26.6Q175.89-26.6 178.36-24.98 180.84-23.35 182.09-20.6 183.34-17.85 183.34-14.55L183.34-14.55Q183.34-12.8 183.19-11.15L183.19-11.15 164.99-11.15Q165.44-7.5 167.54-5.45 169.64-3.4 173.09-3.4L173.09-3.4Q175.34-3.4 177.14-3.88 178.94-4.35 180.59-5.1L180.59-5.1 181.64-1.25Q179.84-0.45 177.59 0.08 175.34 0.6 172.54 0.6ZM164.94-14.8L164.94-14.8 179.19-14.8Q179.19-18.6 177.29-20.65 175.39-22.7 172.04-22.7L172.04-22.7Q169.14-22.7 167.24-20.68 165.34-18.65 164.94-14.8Z" fill="#ff0000" data-fill-palette-color="primary"></path><path d="M212.74 0L207.79 0 199.59-24.8 203.74-26.25 210.44-5.1 216.54-24.15 221.39-24.15 227.34-5.1 233.99-26.25 237.99-24.8 229.74 0 224.79 0 218.79-19.35 212.74 0ZM247.74 0L243.24 0 243.24-26 247.74-26 247.74 0ZM245.49-30.45L245.49-30.45Q244.19-30.45 243.26-31.4 242.34-32.35 242.34-33.6L242.34-33.6Q242.34-35.05 243.19-35.9 244.04-36.75 245.49-36.75L245.49-36.75Q246.79-36.75 247.71-35.83 248.64-34.9 248.64-33.6L248.64-33.6Q248.64-32.2 247.79-31.33 246.94-30.45 245.49-30.45ZM276.23-2.45L272.83 0.45 264.08-10.4 255.43 0.35 252.23-2.45 261.48-13.2 252.58-23.5 256.08-26.55 264.13-16.15 272.03-26.35 275.38-23.5 266.73-13.4 276.23-2.45Z" fill="#3fb050" data-fill-palette-color="secondary"></path></g></svg></g></svg></g><g transform="matrix(1,0,0,1,0,86.98423510503034)"><svg viewBox="0 0 232.209792 20.102899424186823" height="20.102899424186823" width="232.209792"><g transform="matrix(1,0,0,1,0,0)"><svg width="232.209792" viewBox="4.690000057220459 -39.84000015258789 585.3900146484375 50.68000030517578" height="20.102899424186823" data-palette-color="#3fb050"><path d="M33.74-18.99L33.74-18.99Q33.74-14.55 32.79-11.4 31.84-8.25 30.37-6.13 28.91-4 27.08-2.78 25.24-1.56 23.54-0.95 21.83-0.34 20.41-0.17 18.99 0 18.31 0L18.31 0 4.69 0 4.69-35.99 15.53-35.99Q20.07-35.99 23.51-34.55 26.95-33.11 29.22-30.71 31.49-28.32 32.62-25.27 33.74-22.22 33.74-18.99ZM10.55-4.3L16.36-4.3Q22.31-4.3 24.95-8.11 27.59-11.91 27.59-19.14L27.59-19.14Q27.59-21.39 27.05-23.58 26.51-25.78 24.98-27.56 23.44-29.35 20.8-30.44 18.16-31.54 13.96-31.54L13.96-31.54 10.55-31.54 10.55-4.3ZM54.05-27.69L54.05-27.69Q56.88-27.69 59.18-26.59 61.47-25.49 63.08-23.58 64.69-21.68 65.57-19.14 66.45-16.6 66.45-13.67L66.45-13.67Q66.45-10.74 65.52-8.18 64.6-5.62 62.91-3.74 61.23-1.86 58.91-0.81 56.59 0.24 53.76 0.24L53.76 0.24Q50.88 0.24 48.51-0.83 46.14-1.9 44.5-3.81 42.87-5.71 41.99-8.25 41.11-10.79 41.11-13.77 41.11-16.75 42.06-19.34 43.02-21.92 44.7-23.75 46.38-25.59 48.78-26.64 51.17-27.69 54.05-27.69ZM53.66-4.39L53.66-4.39Q55.12-4.39 56.32-5.1 57.52-5.81 58.37-7.06 59.23-8.3 59.74-10.01 60.25-11.72 60.25-13.67L60.25-13.67Q60.25-15.63 59.79-17.33 59.32-19.04 58.52-20.34 57.71-21.63 56.54-22.41 55.37-23.19 53.9-23.19L53.9-23.19Q52.44-23.19 51.22-22.46 50-21.73 49.14-20.48 48.29-19.24 47.82-17.55 47.36-15.87 47.36-13.92L47.36-13.92Q47.36-11.96 47.78-10.23 48.19-8.5 49.02-7.23 49.85-5.96 51-5.18 52.15-4.39 53.66-4.39ZM96.92-0.98L96.92 0 90.96 0 90.96-14.99Q90.96-16.65 90.82-18.16 90.67-19.68 90.13-20.85 89.59-22.02 88.67-22.68 87.74-23.34 86.08-23.34L86.08-23.34Q85.54-23.34 84.69-23.19 83.83-23.05 82.93-22.75 82.03-22.46 81.22-22.02 80.41-21.58 80.02-21L80.02-21 80.02-20.7 80.02-20.61 80.02-9.77 80.02-9.67 80.02 0 74.12 0 74.12-27.54 79.39-27.54 80.02-24.76Q80.61-25.29 81.51-25.85 82.42-26.42 83.49-26.86 84.57-27.29 85.69-27.56 86.81-27.83 87.89-27.83L87.89-27.83Q90.08-27.83 91.6-26.9 93.11-25.98 94.62-24.51L94.62-24.51Q95.45-23.68 95.92-22.58 96.38-21.48 96.6-20.29 96.82-19.09 96.87-17.87 96.92-16.65 96.92-15.48L96.92-15.48 96.92-0.98ZM109.47-35.99L108.68-27.54 105.31-27.54 104.53-35.99 109.47-35.99ZM125.14-23.54L125.14-8.35Q125.14-6.69 125.58-5.76 126.02-4.83 126.82-4.35 127.63-3.86 128.63-3.74 129.63-3.61 130.75-3.61L130.75-3.61 130.75 0Q130.12 0.1 129.48 0.15L129.48 0.15Q128.95 0.2 128.19 0.22 127.43 0.24 126.7 0.24L126.7 0.24Q125.97 0.24 125.21 0.2 124.45 0.15 123.92 0.05L123.92 0.05Q122.26-0.24 121.33-1.39 120.4-2.54 119.94-3.93 119.47-5.32 119.35-6.64 119.23-7.96 119.23-8.69L119.23-8.69 119.23-23.54 115.62-23.54 115.62-27.54 119.23-27.54 119.23-35.35 125.14-35.35 125.14-27.54 129.53-27.54 129.53-23.54 125.14-23.54ZM150.52-2.2L150.52-2.2 153.01-6.15Q153.99-5.47 155.33-4.88 156.67-4.3 158.73-4.3L158.73-4.3Q161.41-4.3 162.92-5.13 164.44-5.96 164.44-7.57L164.44-7.57Q164.44-8.74 163.56-9.45 162.68-10.16 161.34-10.67 159.99-11.18 158.46-11.65 156.92-12.11 155.6-12.79L155.6-12.79Q153.01-14.16 151.72-15.67 150.42-17.19 150.42-19.68L150.42-19.68Q150.42-21.73 151.28-23.29 152.13-24.85 153.5-25.9 154.87-26.95 156.63-27.49 158.38-28.03 160.19-28.03L160.19-28.03Q162.63-28.03 164.68-27.51 166.73-27 168.64-25.78L168.64-25.78 166.73-21.73Q165.27-22.56 163.56-22.88 161.85-23.19 160.19-23.19L160.19-23.19Q158.38-23.19 157.33-22.39 156.28-21.58 156.28-19.87L156.28-19.87Q156.28-18.55 157.24-17.8 158.19-17.04 159.7-16.46 161.22-15.87 162.92-15.28 164.63-14.7 166.12-13.79 167.61-12.89 168.59-11.52 169.57-10.16 169.57-8.01L169.57-8.01Q169.57-5.91 168.74-4.35 167.9-2.78 166.49-1.76 165.07-0.73 163.22-0.24 161.36 0.24 159.26 0.24L159.26 0.24Q157.99 0.24 156.92 0.17 155.84 0.1 154.82-0.15 153.79-0.39 152.77-0.88 151.74-1.37 150.52-2.2ZM177.03-26.61L177.03-26.56 177.03-27.54 182.99-27.54 182.99-12.55Q182.99-10.84 183.14-9.35 183.28-7.86 183.77-6.74 184.26-5.62 185.24-4.93 186.21-4.25 187.82-4.25L187.82-4.25Q188.31-4.25 189.19-4.37 190.07-4.49 190.97-4.79 191.88-5.08 192.68-5.52 193.49-5.96 193.88-6.54L193.88-6.54 193.88-6.88 193.88-6.93 193.88-17.87 193.88-17.92 193.88-27.54 199.84-27.54 199.84 0 194.51 0 193.88-2.83Q193.29-2.29 192.41-1.76 191.54-1.22 190.49-0.76 189.44-0.29 188.34-0.02 187.24 0.24 186.16 0.24L186.16 0.24Q184.99 0.24 184.06 0.02 183.14-0.2 182.33-0.66 181.53-1.12 180.79-1.71 180.06-2.29 179.33-3.03L179.33-3.03Q178.5-3.86 178.01-4.96 177.52-6.05 177.3-7.25 177.08-8.45 177.06-9.67 177.03-10.89 177.03-12.06L177.03-12.06 177.03-26.61ZM232.21-19.19L232.21-19.19Q232.79-16.94 232.79-14.16L232.79-14.16Q232.79-11.38 232.13-8.76 231.47-6.15 230.13-4.15 228.79-2.15 226.76-0.95 224.74 0.24 222 0.24L222 0.24Q220.54 0.24 219.17-0.05 217.8-0.34 216.73-0.85 215.65-1.37 214.95-1.98 214.24-2.59 214.09-3.27L214.09-3.27 214.09 10.84 208.13 10.84 208.13-27.54 213.46-27.54 214.09-24.76Q215.07-26.12 217.05-26.95 219.02-27.78 221.42-27.78L221.42-27.78Q223.03-27.78 224.69-27.34 226.35-26.9 227.79-25.88 229.23-24.85 230.4-23.19 231.57-21.53 232.21-19.19ZM220.05-4.35L220.05-4.35Q221.51-4.35 222.71-5.08 223.91-5.81 224.76-7.06 225.61-8.3 226.1-10.03 226.59-11.77 226.59-13.72L226.59-13.72Q226.59-15.63 226.15-17.33 225.71-19.04 224.91-20.36 224.1-21.68 222.95-22.46 221.81-23.24 220.29-23.24L220.29-23.24Q218.83-23.24 217.61-22.51 216.39-21.78 215.51-20.53 214.63-19.29 214.16-17.6 213.7-15.92 213.7-13.96L213.7-13.96Q213.7-12.01 214.12-10.28 214.53-8.54 215.36-7.23 216.19-5.91 217.36-5.13 218.53-4.35 220.05-4.35ZM263.45-19.19L263.45-19.19Q264.04-16.94 264.04-14.16L264.04-14.16Q264.04-11.38 263.38-8.76 262.72-6.15 261.38-4.15 260.04-2.15 258.01-0.95 255.98 0.24 253.25 0.24L253.25 0.24Q251.78 0.24 250.42-0.05 249.05-0.34 247.98-0.85 246.9-1.37 246.19-1.98 245.49-2.59 245.34-3.27L245.34-3.27 245.34 10.84 239.38 10.84 239.38-27.54 244.7-27.54 245.34-24.76Q246.32-26.12 248.29-26.95 250.27-27.78 252.66-27.78L252.66-27.78Q254.27-27.78 255.93-27.34 257.59-26.9 259.04-25.88 260.48-24.85 261.65-23.19 262.82-21.53 263.45-19.19ZM251.3-4.35L251.3-4.35Q252.76-4.35 253.96-5.08 255.15-5.81 256.01-7.06 256.86-8.3 257.35-10.03 257.84-11.77 257.84-13.72L257.84-13.72Q257.84-15.63 257.4-17.33 256.96-19.04 256.15-20.36 255.35-21.68 254.2-22.46 253.05-23.24 251.54-23.24L251.54-23.24Q250.08-23.24 248.85-22.51 247.63-21.78 246.75-20.53 245.88-19.29 245.41-17.6 244.95-15.92 244.95-13.96L244.95-13.96Q244.95-12.01 245.36-10.28 245.78-8.54 246.61-7.23 247.44-5.91 248.61-5.13 249.78-4.35 251.3-4.35ZM282.89-27.69L282.89-27.69Q285.72-27.69 288.01-26.59 290.31-25.49 291.92-23.58 293.53-21.68 294.41-19.14 295.29-16.6 295.29-13.67L295.29-13.67Q295.29-10.74 294.36-8.18 293.43-5.62 291.75-3.74 290.06-1.86 287.74-0.81 285.42 0.24 282.59 0.24L282.59 0.24Q279.71 0.24 277.34-0.83 274.98-1.9 273.34-3.81 271.7-5.71 270.82-8.25 269.95-10.79 269.95-13.77 269.95-16.75 270.9-19.34 271.85-21.92 273.53-23.75 275.22-25.59 277.61-26.64 280-27.69 282.89-27.69ZM282.49-4.39L282.49-4.39Q283.96-4.39 285.16-5.1 286.35-5.81 287.21-7.06 288.06-8.3 288.57-10.01 289.09-11.72 289.09-13.67L289.09-13.67Q289.09-15.63 288.62-17.33 288.16-19.04 287.35-20.34 286.55-21.63 285.38-22.41 284.2-23.19 282.74-23.19L282.74-23.19Q281.27-23.19 280.05-22.46 278.83-21.73 277.98-20.48 277.12-19.24 276.66-17.55 276.2-15.87 276.2-13.92L276.2-13.92Q276.2-11.96 276.61-10.23 277.03-8.5 277.86-7.23 278.69-5.96 279.83-5.18 280.98-4.39 282.49-4.39ZM318.43-27.73L318.43-21.58Q317.06-21.97 315.11-22.02L315.11-22.02Q313.35-22.02 311.62-21.61 309.88-21.19 308.86-20.21L308.86-20.21 308.86-9.77 308.86-9.67 308.86 0 302.95 0 302.95-27.54 308.22-27.54 308.86-24.71Q309.59-25.44 310.4-26.03 311.2-26.61 312.28-26.98 313.35-27.34 314.82-27.54 316.28-27.73 318.43-27.73L318.43-27.73ZM332.59-23.54L332.59-8.35Q332.59-6.69 333.03-5.76 333.47-4.83 334.27-4.35 335.08-3.86 336.08-3.74 337.08-3.61 338.2-3.61L338.2-3.61 338.2 0Q337.57 0.1 336.93 0.15L336.93 0.15Q336.4 0.2 335.64 0.22 334.88 0.24 334.15 0.24L334.15 0.24Q333.42 0.24 332.66 0.2 331.9 0.15 331.37 0.05L331.37 0.05Q329.71-0.24 328.78-1.39 327.85-2.54 327.39-3.93 326.92-5.32 326.8-6.64 326.68-7.96 326.68-8.69L326.68-8.69 326.68-23.54 323.07-23.54 323.07-27.54 326.68-27.54 326.68-35.35 332.59-35.35 332.59-27.54 336.98-27.54 336.98-23.54 332.59-23.54ZM378.48-14.89L378.48-8.54 378.48-8.15Q378.48-7.76 378.53-7.01 378.58-6.25 378.72-5.47 378.87-4.69 379.19-4.05 379.51-3.42 380.04-3.22L380.04-3.22 378.48 0.05Q377.85 0.05 377.14-0.24 376.43-0.54 375.77-1.07 375.11-1.61 374.65-2.27 374.18-2.93 373.94-3.71L373.94-3.71Q373.6-2.88 372.74-2.17 371.89-1.46 370.81-0.9 369.74-0.34 368.5-0.05 367.25 0.24 366.18 0.24L366.18 0.24Q364.52 0.24 362.98-0.2 361.44-0.63 360.27-1.61 359.1-2.59 358.44-4.2 357.78-5.81 357.78-8.15L357.78-8.15Q357.78-10.4 358.73-12.04 359.68-13.67 361.17-14.72 362.66-15.77 364.56-16.28 366.47-16.8 368.42-16.8L368.42-16.8 372.57-16.8Q372.57-19.19 372.33-20.61 372.08-22.02 371.5-22.68 370.91-23.34 370.06-23.51 369.2-23.68 368.03-23.68L368.03-23.68Q366.96-23.68 366.01-23.41 365.05-23.14 364.25-22.78 363.44-22.41 362.83-21.97 362.22-21.53 361.93-21.29L361.93-21.29 359.73-24.66Q360.22-25.2 361.2-25.76 362.17-26.32 363.44-26.76 364.71-27.2 366.2-27.47 367.69-27.73 369.3-27.73L369.3-27.73Q370.77-27.73 372.16-27.44 373.55-27.15 374.7-26.46 375.84-25.78 376.7-24.63 377.55-23.49 377.89-21.78L377.89-21.78Q378.24-20.07 378.36-18.33 378.48-16.6 378.48-14.89L378.48-14.89ZM372.62-6.59L372.62-13.33 369.5-13.33Q368.52-13.33 367.45-13.13 366.37-12.94 365.44-12.4 364.52-11.87 363.91-10.86 363.3-9.86 363.3-8.3L363.3-8.3Q363.3-5.86 364.39-4.79 365.49-3.71 367.59-3.71L367.59-3.71Q369.06-3.71 370.4-4.49 371.74-5.27 372.62-6.59L372.62-6.59ZM411.88-19.19L411.88-19.19Q412.46-16.94 412.46-14.16L412.46-14.16Q412.46-11.38 411.8-8.76 411.14-6.15 409.8-4.15 408.46-2.15 406.43-0.95 404.41 0.24 401.67 0.24L401.67 0.24Q400.21 0.24 398.84-0.05 397.47-0.34 396.4-0.85 395.32-1.37 394.62-1.98 393.91-2.59 393.76-3.27L393.76-3.27 393.76 10.84 387.8 10.84 387.8-27.54 393.13-27.54 393.76-24.76Q394.74-26.12 396.72-26.95 398.69-27.78 401.09-27.78L401.09-27.78Q402.7-27.78 404.36-27.34 406.02-26.9 407.46-25.88 408.9-24.85 410.07-23.19 411.24-21.53 411.88-19.19ZM399.72-4.35L399.72-4.35Q401.18-4.35 402.38-5.08 403.58-5.81 404.43-7.06 405.28-8.3 405.77-10.03 406.26-11.77 406.26-13.72L406.26-13.72Q406.26-15.63 405.82-17.33 405.38-19.04 404.58-20.36 403.77-21.68 402.62-22.46 401.48-23.24 399.96-23.24L399.96-23.24Q398.5-23.24 397.28-22.51 396.06-21.78 395.18-20.53 394.3-19.29 393.83-17.6 393.37-15.92 393.37-13.96L393.37-13.96Q393.37-12.01 393.79-10.28 394.2-8.54 395.03-7.23 395.86-5.91 397.03-5.13 398.2-4.35 399.72-4.35ZM439.27-14.89L439.27-8.54 439.27-8.15Q439.27-7.76 439.32-7.01 439.36-6.25 439.51-5.47 439.66-4.69 439.97-4.05 440.29-3.42 440.83-3.22L440.83-3.22 439.27 0.05Q438.63 0.05 437.92-0.24 437.22-0.54 436.56-1.07 435.9-1.61 435.43-2.27 434.97-2.93 434.73-3.71L434.73-3.71Q434.38-2.88 433.53-2.17 432.67-1.46 431.6-0.9 430.53-0.34 429.28-0.05 428.04 0.24 426.96 0.24L426.96 0.24Q425.3 0.24 423.76-0.2 422.23-0.63 421.05-1.61 419.88-2.59 419.22-4.2 418.56-5.81 418.56-8.15L418.56-8.15Q418.56-10.4 419.52-12.04 420.47-13.67 421.96-14.72 423.45-15.77 425.35-16.28 427.25-16.8 429.21-16.8L429.21-16.8 433.36-16.8Q433.36-19.19 433.11-20.61 432.87-22.02 432.28-22.68 431.7-23.34 430.84-23.51 429.99-23.68 428.82-23.68L428.82-23.68Q427.74-23.68 426.79-23.41 425.84-23.14 425.03-22.78 424.23-22.41 423.62-21.97 423.01-21.53 422.71-21.29L422.71-21.29 420.52-24.66Q421-25.2 421.98-25.76 422.96-26.32 424.23-26.76 425.5-27.2 426.99-27.47 428.48-27.73 430.09-27.73L430.09-27.73Q431.55-27.73 432.94-27.44 434.34-27.15 435.48-26.46 436.63-25.78 437.48-24.63 438.34-23.49 438.68-21.78L438.68-21.78Q439.02-20.07 439.14-18.33 439.27-16.6 439.27-14.89L439.27-14.89ZM433.41-6.59L433.41-13.33 430.28-13.33Q429.31-13.33 428.23-13.13 427.16-12.94 426.23-12.4 425.3-11.87 424.69-10.86 424.08-9.86 424.08-8.3L424.08-8.3Q424.08-5.86 425.18-4.79 426.28-3.71 428.38-3.71L428.38-3.71Q429.84-3.71 431.19-4.49 432.53-5.27 433.41-6.59L433.41-6.59ZM464.07-27.73L464.07-21.58Q462.7-21.97 460.75-22.02L460.75-22.02Q458.99-22.02 457.26-21.61 455.52-21.19 454.5-20.21L454.5-20.21 454.5-9.77 454.5-9.67 454.5 0 448.59 0 448.59-27.54 453.86-27.54 454.5-24.71Q455.23-25.44 456.04-26.03 456.84-26.61 457.92-26.98 458.99-27.34 460.46-27.54 461.92-27.73 464.07-27.73L464.07-27.73ZM478.23-23.54L478.23-8.35Q478.23-6.69 478.67-5.76 479.11-4.83 479.91-4.35 480.72-3.86 481.72-3.74 482.72-3.61 483.84-3.61L483.84-3.61 483.84 0Q483.21 0.1 482.57 0.15L482.57 0.15Q482.04 0.2 481.28 0.22 480.52 0.24 479.79 0.24L479.79 0.24Q479.06 0.24 478.3 0.2 477.54 0.15 477.01 0.05L477.01 0.05Q475.35-0.24 474.42-1.39 473.49-2.54 473.03-3.93 472.56-5.32 472.44-6.64 472.32-7.96 472.32-8.69L472.32-8.69 472.32-23.54 468.71-23.54 468.71-27.54 472.32-27.54 472.32-35.35 478.23-35.35 478.23-27.54 482.62-27.54 482.62-23.54 478.23-23.54ZM513.58-0.98L513.58 0 507.62 0 507.62-14.99Q507.62-16.65 507.47-18.16 507.33-19.68 506.79-20.85 506.25-22.02 505.32-22.68 504.4-23.34 502.74-23.34L502.74-23.34Q502.2-23.34 501.34-23.19 500.49-23.05 499.59-22.75 498.68-22.46 497.88-22.02 497.07-21.58 496.68-21L496.68-21 496.68-20.7 496.68-20.61 496.68-9.77 496.68-9.67 496.68 0 490.77 0 490.77-37.94 496.68-37.94 496.68-24.76Q497.27-25.29 498.17-25.85 499.07-26.42 500.15-26.86 501.22-27.29 502.35-27.56 503.47-27.83 504.54-27.83L504.54-27.83Q506.74-27.83 508.25-26.9 509.77-25.98 511.28-24.51L511.28-24.51Q512.11-23.68 512.57-22.58 513.04-21.48 513.26-20.29 513.48-19.09 513.53-17.87 513.58-16.65 513.58-15.48L513.58-15.48 513.58-0.98ZM532.03-27.83L532.03-27.83Q535.35-27.83 537.89-26.49 540.43-25.15 542.06-22.92 543.7-20.7 544.41-17.8 545.12-14.89 544.68-11.77L544.68-11.77 525.54-11.77Q525.54-10.21 526.12-8.89 526.71-7.57 527.71-6.62 528.71-5.66 530.1-5.13 531.49-4.59 533.1-4.59L533.1-4.59Q533.64-4.59 534.45-4.71 535.25-4.83 536.16-5.15 537.06-5.47 537.96-5.96 538.87-6.45 539.55-7.13L539.55-7.13 541.7-3.86Q540.09-1.86 537.94-0.83 535.79 0.2 532.47 0.2L532.47 0.2Q529.78 0.2 527.44-0.9 525.1-2 523.44-3.91 521.78-5.81 520.8-8.35 519.82-10.89 519.82-13.82L519.82-13.82Q519.82-16.7 520.8-19.26 521.78-21.83 523.41-23.73 525.05-25.63 527.29-26.73 529.54-27.83 532.03-27.83ZM525.73-16.06L539.21-16.06Q539.21-17.38 538.72-18.65 538.23-19.92 537.38-20.95 536.52-21.97 535.3-22.58 534.08-23.19 532.66-23.24L532.66-23.24Q531.15-23.24 529.88-22.66 528.61-22.07 527.68-21.09 526.76-20.12 526.24-18.77 525.73-17.43 525.73-16.06L525.73-16.06ZM558.83-27.54L558.83 0 552.88 0 552.88-27.54 558.83-27.54ZM559.37-36.33L559.37-36.33Q559.37-34.86 558.35-33.86 557.32-32.86 555.86-32.86L555.86-32.86Q554.39-32.86 553.39-33.89 552.39-34.91 552.39-36.33L552.39-36.33Q552.39-37.79 553.41-38.82 554.44-39.84 555.86-39.84L555.86-39.84Q557.32-39.84 558.35-38.82 559.37-37.79 559.37-36.33ZM568.99-2.78L568.99-2.78Q567.13-4.88 566.25-7.96 565.37-11.04 565.37-14.16L565.37-14.16Q565.37-17.97 566.42-20.56 567.47-23.14 569.13-24.76 570.79-26.37 572.82-27.08 574.85-27.78 576.8-27.78L576.8-27.78Q579.19-27.78 581.17-26.95 583.15-26.12 584.12-24.76L584.12-24.76 584.12-37.94 590.08-37.94 590.08 0 584.47 0Q584.37-0.83 584.3-1.68 584.22-2.54 584.12-3.27L584.12-3.27Q583.98-2.64 583.27-2 582.56-1.37 581.46-0.85 580.36-0.34 579-0.05 577.63 0.24 576.17 0.24L576.17 0.24Q574.21 0.24 572.33-0.44 570.45-1.12 568.99-2.78ZM571.62-13.72L571.62-13.72Q571.62-11.77 572.11-10.08 572.6-8.4 573.43-7.13 574.26-5.86 575.46-5.13 576.65-4.39 578.07-4.39L578.07-4.39Q579.58-4.39 580.78-5.15 581.98-5.91 582.81-7.18 583.64-8.45 584.08-10.16 584.52-11.87 584.52-13.82L584.52-13.82Q584.52-15.77 584.05-17.48 583.59-19.19 582.73-20.46 581.88-21.73 580.68-22.49 579.49-23.24 577.97-23.24L577.97-23.24Q576.46-23.24 575.29-22.49 574.11-21.73 573.31-20.41 572.5-19.09 572.06-17.38 571.62-15.67 571.62-13.72Z" opacity="1" transform="matrix(1,0,0,1,0,0)" fill="#3fb050" class="slogan-text-1" data-fill-palette-color="secondary" id="text-1"></path></svg></g></svg></g></svg></g></svg></g><g><svg viewBox="0 0 154.35306362014376 112.47575913872738" height="112.47575913872738" width="154.35306362014376"><g><svg xmlns="http://www.w3.org/2000/svg" xml:space="preserve" viewBox="8.400001525878906 19.700000762939453 83.30000305175781 60.70000076293945" x="0" y="0" height="112.47575913872738" width="154.35306362014376" class="icon-icon-0" data-fill-palette-color="accent" id="icon-0"><path d="M86.9 19.7h-75c-1.9 0-3.5 1.6-3.5 3.5v53.7c0 1.9 1.6 3.5 3.5 3.5h75c2.6 0 4.8-2.1 4.8-4.8V24.4c-0.1-2.6-2.2-4.7-4.8-4.7M38.6 57.1V46.3h20l-4.8 4.8 4.5 4.5 12.5-12.5-12.6-12.4-4.5 4.5 4.8 4.8h-20V26h47.7v36.9H38.6v-5.8M35.4 40h-8.3v6.4h8.3v10.8H19.2q-0.3 0-0.3-0.3v-28q0-0.3 0.3-0.3h16.2zM11.9 77.2q-0.3 0-0.3-0.3V23.2q0-0.3 0.3-0.3h23.5v2.5H19.2c-1.9 0-3.5 1.6-3.5 3.5v28c0 1.9 1.6 3.5 3.5 3.5h16.2v8.5h-1.9v-1.3h-7.9v1.3h-8.3c-0.9 0-1.6 0.7-1.6 1.6s0.7 1.6 1.6 1.6h8.3v1.3h7.9v-1.3h1.9v5.1z m76.5-1.6c0 0.9-0.7 1.6-1.6 1.6H38.6v-8h49.9v6.4z" fill="#2d4031" data-fill-palette-color="accent"></path></svg></g></svg></g></svg></g><defs></defs></svg><rect width="395.52" height="78.53046645258266" fill="none" stroke="none" visibility="hidden"></rect></g></svg></g></g></g></g><rect width="288.1516939823874" height="61.04652336105676" x="236.6083659491194" y="157.65925039750488" rx="2.5" ry="2.5" fill="transparent" class="logo-element-hover-target"></rect><rect width="174.12366988747556" height="26.03580219545006" x="236.6108121330724" y="218.34825250733854" rx="2.5" ry="2.5" fill="transparent" class="logo-element-hover-target"></rect><rect width="119.76915667808225" height="90.53045499021528" x="117.2400165117416" y="155.73477250489236" rx="2.5" ry="2.5" fill="transparent" class="logo-element-hover-target"></rect></svg>
